<svg width="18" height="20" viewBox="0 0 18 20" fill="none" xmlns="http://www.w3.org/2000/svg">
<path d="M12.8286 0H4.56874C4.17198 0 3.84736 0.325301 3.84736 0.72289V3.85543H0.721385C0.324623 3.85543 0 4.18073 0 4.57832V19.2771C0 19.6747 0.324623 20 0.721385 20H12.8647C13.2615 20 13.5861 19.6747 13.5861 19.2771V16.0241H16.5919C16.9886 16.0241 17.3132 15.6988 17.3132 15.3012V4.51807C17.3132 4.32531 17.2411 4.14459 17.1088 4.01204L13.3456 0.216867C13.2134 0.072289 13.021 0 12.8286 0ZM12.1433 18.5542H1.44277V5.30121H3.8474V15.3012C3.8474 15.6988 4.17202 16.0241 4.56879 16.0241H12.1433V18.5542H12.1433ZM5.29013 14.5783V1.44578H11.5421V5.54215C11.5421 5.93974 11.8667 6.26504 12.2635 6.26504H15.8704V14.5783H5.29013ZM15.8705 4.81926H12.9849V1.90363L15.8705 4.81926Z" fill="white"/>
</svg>
