<svg width="14" height="14" viewBox="0 0 14 14" fill="none" xmlns="http://www.w3.org/2000/svg">
<path d="M7.38666 13.4001C6.34676 13.4001 5.40214 13.2395 4.5773 12.9264C3.76063 12.6134 3.03923 12.1397 2.42945 11.5136C1.82239 10.8847 1.3596 10.1878 1.05471 9.44195C0.755266 8.69606 0.600098 7.87666 0.600098 7.00554C0.600098 6.09631 0.76071 5.25242 1.08194 4.49563C1.40044 3.74157 1.885 3.0474 2.52473 2.43761C3.16445 1.82783 3.8804 1.36233 4.65352 1.05743C5.42392 0.755266 6.2787 0.600098 7.19065 0.600098C8.91928 0.600098 10.3838 1.14182 11.5435 2.21167C12.1234 2.74523 12.5616 3.33868 12.8502 3.98113C13.136 4.62085 13.283 5.32592 13.283 6.07998C13.283 7.26415 12.9291 8.285 12.2295 9.12073C11.5354 9.95373 10.7377 10.3566 9.79312 10.3566C9.18878 10.3566 8.74778 10.1334 8.44289 9.67606L8.24144 9.37389L8.00733 9.64884C7.58266 10.147 7.09265 10.392 6.50465 10.392C5.8377 10.392 5.27964 10.1143 4.80052 9.5454C4.31596 8.971 4.06824 8.19244 4.06824 7.23421C4.06824 6.2542 4.34591 5.44842 4.89308 4.83863C5.44025 4.22613 6.07998 3.92668 6.84493 3.92668C7.31316 3.92668 7.73238 4.08457 8.13255 4.40852L8.4565 4.67258L8.62256 4.06279H9.85029L9.38206 7.90116C9.3494 8.20605 9.33306 8.4565 9.33306 8.66883C9.33306 9.07445 9.57534 9.32762 9.96462 9.32762C10.4982 9.32762 11.0045 9.00912 11.4673 8.37755C11.911 7.77322 12.137 7.01099 12.137 6.11537C12.137 4.81141 11.6524 3.71162 10.6996 2.85139C9.75773 1.99933 8.58444 1.56649 7.21516 1.56649C5.73153 1.56649 4.46024 2.09189 3.44212 3.12906C2.42128 4.16624 1.90405 5.47292 1.90405 7.01371C1.90405 8.43472 2.38589 9.68968 3.33595 10.7459C4.29419 11.8103 5.65531 12.3493 7.38393 12.3493C8.45922 12.3493 9.5699 12.1043 10.6887 11.6252C10.7568 11.5952 10.8303 11.5816 10.9065 11.5816C11.127 11.5816 11.3257 11.715 11.4074 11.9192C11.5163 12.1887 11.3829 12.5045 11.1107 12.6215C9.89929 13.136 8.64706 13.4001 7.38666 13.4001ZM6.94837 5.15714C6.48832 5.15714 6.10176 5.36947 5.79686 5.78598C5.51375 6.17526 5.36947 6.68432 5.36947 7.30227C5.36947 7.80316 5.47292 8.23327 5.67709 8.579C5.9602 9.06628 6.34404 9.16973 6.61354 9.16973C7.12804 9.16973 7.57177 8.922 7.93383 8.43744C8.27683 7.97466 8.45105 7.4411 8.45378 6.85037C8.45378 6.34948 8.30133 5.93842 8.00188 5.62809C7.69971 5.31503 7.34582 5.15714 6.94837 5.15714Z" fill="#737780"/>
</svg>
