<svg width="55" height="60" viewBox="0 0 55 60" fill="none" xmlns="http://www.w3.org/2000/svg">
<path d="M3.4634 60C1.56096 60 0 58.4145 0 56.4544V3.53308C0 1.58552 1.54877 0 3.4634 0H51.5366C53.4512 0 55 1.58552 55 3.53308V56.4544C55 58.402 53.4512 60 51.5366 60H3.4634ZM2.36584 56.4669C2.36584 57.0911 2.85365 57.5905 3.4634 57.5905H51.5366C52.1463 57.5905 52.6341 57.0786 52.6341 56.4669V10.8365H19.6707C19.0244 10.8365 18.4878 10.2996 18.4878 9.62547C18.4878 8.96379 19.0122 8.41448 19.6707 8.41448H52.6341V3.53308C52.6341 2.90886 52.1341 2.40949 51.5366 2.40949H3.4634C2.85365 2.40949 2.36584 2.90886 2.36584 3.53308V8.41448H15.7073C16.3536 8.41448 16.8902 8.95131 16.8902 9.62547C16.8902 10.2871 16.3658 10.8365 15.7073 10.8365H2.36584V56.4669ZM7.02439 6.36704C6.37805 6.36704 5.84145 5.83021 5.84145 5.15605C5.84145 4.49438 6.36585 3.94507 7.02439 3.94507H7.04877C7.69511 3.94507 8.23171 4.4819 8.23171 5.15605C8.23171 5.81773 7.70731 6.36704 7.04877 6.36704H7.02439ZM11.1341 6.36704C10.4878 6.36704 9.95122 5.83021 9.95122 5.15605C9.95122 4.49438 10.4756 3.94507 11.1341 3.94507H11.1585C11.8049 3.94507 12.3415 4.4819 12.3415 5.15605C12.3415 5.81773 11.8171 6.36704 11.1585 6.36704H11.1341ZM15.2317 6.37953C14.5854 6.37953 14.0488 5.8427 14.0488 5.16854C14.0488 4.49438 14.5732 3.95755 15.2317 3.95755H15.2561C15.9024 3.95755 16.439 4.49438 16.439 5.16854C16.439 5.8427 15.9146 6.37953 15.2561 6.37953H15.2317ZM32.3171 6.62921C31.6707 6.62921 31.1342 6.09238 31.1342 5.41823C31.1342 4.75655 31.6585 4.20724 32.3171 4.20724H48.2927C48.939 4.20724 49.4756 4.74407 49.4756 5.41823C49.4756 6.0799 48.9512 6.62921 48.2927 6.62921H32.3171ZM14.7195 45.0187C13.439 45.0187 12.3902 43.9576 12.3902 42.6467V40.5743C12.3902 39.2634 13.439 38.2022 14.7195 38.2022H40.2927C41.5732 38.2022 42.622 39.2634 42.622 40.5743V42.6467C42.622 43.9576 41.5732 45.0187 40.2927 45.0187H14.7195ZM14.7561 42.6092H40.2683V40.6117H14.7561V42.6092ZM14.7195 53.8077C13.439 53.8077 12.4024 52.7466 12.4024 51.4357V49.3633C12.4024 48.0524 13.439 46.9913 14.7195 46.9913H40.2927C41.5732 46.9913 42.622 48.0524 42.622 49.3633V51.4357C42.622 52.7466 41.5732 53.8077 40.2927 53.8077H14.7195ZM14.7561 51.3983H40.2683V49.4007H14.7561V51.3983ZM27.5976 35.0687C24.5488 35.0687 21.6463 33.7079 19.6585 31.3358L19.1585 30.7491L19.1707 30.7241L19.1219 30.6617C17.8293 28.839 17.1097 26.5918 17.1097 24.3446C17.1097 18.427 21.8049 13.6205 27.5854 13.6205C33.3658 13.6205 38.061 18.427 38.061 24.3446C38.061 26.5918 37.3414 28.839 36.0488 30.6617L36 30.7241L36.0122 30.7491L35.5122 31.3358C35.3293 31.5605 35.1341 31.7728 34.9268 31.9725C33.7439 33.171 32.2805 34.0699 30.6951 34.5693C30.6585 34.5818 30.6098 34.5943 30.5732 34.6067C30.4024 34.6567 30.2439 34.7066 30.0976 34.7441C30.0122 34.769 29.9146 34.794 29.8293 34.8065C29.6463 34.8439 29.4634 34.8814 29.2805 34.9188C28.7439 35.0187 28.1707 35.0687 27.5976 35.0687ZM24.8537 27.6654C23.7073 28.2397 22.7073 29.1511 21.9512 30.3371L21.8902 30.4245L21.9878 30.5243C22.061 30.5992 22.1463 30.6742 22.2561 30.7615L22.3049 30.8115C22.4146 30.8989 22.5244 30.9988 22.6463 31.0861C22.6585 31.0986 22.7439 31.161 22.7439 31.161C22.8293 31.2235 22.9146 31.2859 23 31.3483C23.0244 31.3608 23.0488 31.3733 23.0732 31.3983L23.1341 31.4357C23.2073 31.4856 23.2805 31.5356 23.3537 31.5855C23.3902 31.6105 23.4268 31.623 23.4634 31.6479L23.5 31.6729C23.5732 31.7228 23.6463 31.7603 23.7195 31.7978C23.7561 31.8227 23.7927 31.8352 23.8415 31.8602L23.8902 31.8851C23.9634 31.9226 24.0366 31.96 24.1098 31.9975C24.1585 32.0225 24.2195 32.0474 24.2683 32.0724H24.2805C24.3536 32.1099 24.4268 32.1348 24.5 32.1723C24.561 32.1973 24.622 32.2222 24.6707 32.2472C24.7439 32.2722 24.8171 32.3096 24.8902 32.3346C24.9512 32.3596 25.0122 32.372 25.0732 32.397C25.1463 32.422 25.2195 32.4469 25.3049 32.4719C25.3659 32.4844 25.4268 32.5094 25.4878 32.5218C25.561 32.5468 25.6463 32.5593 25.7195 32.5843L25.7683 32.5968C25.8171 32.6092 25.8536 32.6217 25.9024 32.6342C25.9878 32.6467 26.061 32.6717 26.1463 32.6841L26.1951 32.6966C26.2317 32.7091 26.2805 32.7091 26.3171 32.7216C26.3903 32.7341 26.4756 32.7466 26.5488 32.759L26.6463 32.7715C26.6707 32.7715 26.7073 32.784 26.7317 32.784C26.8293 32.7965 26.9268 32.7965 27.0244 32.809C27.0244 32.809 27.1463 32.8215 27.1707 32.8215C27.3171 32.834 27.4634 32.834 27.5976 32.834C27.7439 32.834 27.878 32.834 28.0366 32.8215C28.061 32.8215 28.1829 32.809 28.1829 32.809C28.2805 32.7965 28.378 32.7965 28.4756 32.784C28.5122 32.784 28.5366 32.7715 28.5732 32.7715L28.6585 32.759C28.7317 32.7466 28.8171 32.7341 28.8902 32.7216C28.939 32.7091 28.9756 32.7091 29.0244 32.6966L29.0732 32.6841C29.1585 32.6717 29.2317 32.6592 29.3171 32.6342C29.3658 32.6217 29.4146 32.6092 29.4512 32.5968L29.4878 32.5843C29.561 32.5593 29.6463 32.5468 29.7195 32.5218C29.7805 32.5094 29.8415 32.4844 29.9024 32.4719C29.9756 32.4469 30.0488 32.422 30.1341 32.397C30.1951 32.372 30.2561 32.3596 30.3171 32.3346C30.3902 32.3096 30.4634 32.2846 30.5366 32.2472C30.5975 32.2222 30.6585 32.1973 30.7073 32.1723C30.7805 32.1473 30.8536 32.1099 30.9268 32.0724C30.9878 32.0474 31.0366 32.0225 31.0976 31.9975C31.1707 31.96 31.2439 31.9226 31.3171 31.8851L31.3415 31.8727C31.3902 31.8477 31.4268 31.8227 31.4756 31.7978C31.5488 31.7603 31.6219 31.7104 31.6951 31.6729L31.7561 31.6355C31.7927 31.623 31.8171 31.598 31.8414 31.5855C31.9146 31.5481 31.9756 31.4981 32.0488 31.4607L32.1219 31.4107C32.1585 31.3858 32.1829 31.3733 32.2073 31.3608C32.2927 31.2984 32.378 31.236 32.4634 31.1735L32.5122 31.1361C32.5244 31.1236 32.5488 31.1111 32.561 31.0986C32.6707 31.0112 32.7927 30.9238 32.8902 30.824L32.9512 30.774C33.061 30.6866 33.1341 30.6117 33.2195 30.5368L33.3049 30.4494L33.2561 30.362C32.5 29.1885 31.5 28.2647 30.3536 27.6904L30.2927 27.6529L30.2317 27.6904C29.4634 28.2272 28.5488 28.5144 27.6097 28.5144C26.6585 28.5144 25.7561 28.2272 24.9878 27.6904L24.9268 27.6529L24.8537 27.6654ZM27.5976 17.6904C28.8415 17.6904 30.0122 18.1898 30.878 19.0886C31.7561 19.9875 32.2439 21.186 32.2439 22.4469V23.7453C32.2439 24.432 32.0975 25.1186 31.8171 25.7303L31.7683 25.8302L31.8659 25.8926C32.9146 26.5169 33.8415 27.3408 34.6219 28.3645L34.7317 28.5144L34.8171 28.3521C35.4634 27.1286 35.8171 25.7303 35.8171 24.3321C35.8171 19.6879 32.1219 15.9051 27.5854 15.9051C23.0488 15.9051 19.3537 19.6879 19.3537 24.3321C19.3537 25.7303 19.6951 27.1161 20.3536 28.3521L20.439 28.5144L20.5488 28.3645C21.3293 27.3408 22.2561 26.5044 23.3049 25.8926L23.4024 25.8302L23.3537 25.7303C23.0732 25.1186 22.9268 24.4195 22.9268 23.7453V22.4469C22.9512 19.8252 25.0366 17.6904 27.5976 17.6904ZM27.5976 19.9875C26.2683 19.9875 25.1951 21.0861 25.1951 22.4469V23.7453C25.1951 24.407 25.4512 25.0312 25.9024 25.4931C26.3536 25.9551 26.9512 26.2047 27.5976 26.2047C28.2439 26.2047 28.8415 25.9551 29.2927 25.4931C29.7561 25.0312 30 24.407 30 23.7453V22.4469C30 21.7853 29.7561 21.1735 29.2927 20.7116C28.8415 20.2497 28.2439 19.9875 27.5976 19.9875Z" fill="#737780"/>
</svg>
