<svg width="62" height="64" viewBox="0 0 62 64" fill="none" xmlns="http://www.w3.org/2000/svg">
<path d="M61.6455 24.6125C61.1728 24.125 60.4092 24.125 59.9366 24.6125L51.1859 33.6375C50.9556 33.875 50.8344 34.1875 50.8344 34.525V39.2625C50.8344 39.8 50.7859 40.3375 50.7132 40.8625L41.9141 31.7875L39.9385 29.75C38.678 28.45 36.9449 27.75 35.1632 27.8375C33.3816 27.925 31.709 28.775 30.5697 30.1875L24.5461 37.65C23.8189 38.55 22.5826 38.775 21.6009 38.175C20.6071 37.5625 20.2071 36.2875 20.6677 35.1875L25.2369 24.3125C26.2914 21.7875 28.7032 20.15 31.3696 20.15H36.9085C37.2358 20.15 37.5387 20.0125 37.769 19.7875L54.8583 2.15C55.331 1.6625 55.331 0.875 54.8583 0.3875C54.3856 -0.1 53.622 -0.1 53.1493 0.3875L36.3995 17.6625H31.3575C30.4001 17.6625 29.4789 17.8125 28.5942 18.1C26.861 16.575 24.6794 15.7375 22.3766 15.7375H21.6979L6.81448 0.3875C6.3418 -0.1 5.57824 -0.1 5.10556 0.3875C4.63287 0.875 4.63287 1.6625 5.10556 2.15L20.3404 17.875C20.5707 18.1125 20.8737 18.2375 21.201 18.2375H22.3766C23.734 18.2375 25.0309 18.625 26.158 19.3375C24.8006 20.3125 23.6977 21.675 23.0068 23.3125L18.4376 34.1875C17.4922 36.4375 18.3285 39.0625 20.3647 40.3125C21.1282 40.775 21.9524 41 22.7766 41C24.134 41 25.4672 40.3875 26.4004 39.2375L32.4241 31.775C33.1392 30.8875 34.1451 30.375 35.2602 30.325C36.3752 30.275 37.4297 30.6875 38.2175 31.5125L39.0538 32.375C39.0538 32.375 39.0538 32.375 39.0538 32.3875L40.1688 33.5375L40.193 33.5625L50.3133 44C51.0889 44.8 51.0889 46.1125 50.3133 46.9125C49.9375 47.3 49.4285 47.5125 48.8952 47.5125C48.3619 47.5125 47.865 47.3 47.4772 46.9125L42.5322 41.8125L39.5628 38.75C39.0901 38.2625 38.3265 38.2625 37.8539 38.75C37.3812 39.2375 37.3812 40.025 37.8539 40.5125L40.8233 43.575L45.7682 48.675C46.5439 49.475 46.5439 50.7875 45.7682 51.5875C45.3925 51.975 44.8835 52.1875 44.3502 52.1875C43.8169 52.1875 43.32 51.975 42.9322 51.5875L37.9872 46.4875L35.0178 43.425C34.5451 42.9375 33.7815 42.9375 33.3089 43.425C32.8362 43.9125 32.8362 44.7 33.3089 45.1875L36.2783 48.25L41.2232 53.35C41.9989 54.15 41.9989 55.4625 41.2232 56.2625C40.8475 56.65 40.3385 56.8625 39.8052 56.8625C39.4295 56.8625 39.0659 56.75 38.7508 56.55C38.6538 56.425 38.5568 56.3125 38.4478 56.2L36.1328 53.8125C36.0237 53.7 35.9147 53.625 35.7813 53.5625L30.4849 48.1C30.0122 47.6125 29.2487 47.6125 28.776 48.1C28.3033 48.5875 28.3033 49.375 28.776 49.8625L36.6903 58.025C36.7994 58.1375 36.9085 58.2375 37.0297 58.3375C37.2236 58.6625 37.3327 59.0375 37.3327 59.425C37.3327 59.975 37.1267 60.4875 36.7509 60.8875C35.9753 61.6875 34.7027 61.6875 33.927 60.8875L32.6907 59.6125C33.9391 57.825 33.7815 55.325 32.2302 53.725C31.3939 52.8625 30.2789 52.3875 29.1032 52.3875C29.0669 52.3875 29.0184 52.3875 28.982 52.3875C29.0184 51.175 28.5821 49.9625 27.6973 49.0375C26.861 48.175 25.746 47.7 24.5703 47.7C24.534 47.7 24.4855 47.7 24.4491 47.7C24.4855 46.4875 24.0492 45.275 23.1644 44.35C22.3281 43.4875 21.2131 43.0125 20.0374 43.0125C20.0011 43.0125 19.9526 43.0125 19.9162 43.0125C19.9526 41.8 19.5163 40.5875 18.6315 39.6625C17.7952 38.8 16.6802 38.325 15.5045 38.325C14.3289 38.325 13.2139 38.8 12.3776 39.6625L11.4565 40.6125C9.54149 38.3625 8.45068 35.5375 8.3416 32.5375L14.2441 26.45C14.7167 25.9625 14.7167 25.175 14.2441 24.6875C13.7714 24.2 13.0078 24.2 12.5351 24.6875L7.12959 30.2625L2.06343 25.0375C1.59075 24.55 0.827192 24.55 0.354511 25.0375C-0.11817 25.525 -0.11817 26.3125 0.354511 26.8L5.92972 32.55C6.05092 36.2625 7.4326 39.7625 9.8566 42.5C9.493 43.175 9.28697 43.9375 9.28697 44.7375C9.28697 45.95 9.74752 47.1 10.5838 47.9625C11.4443 48.85 12.5836 49.3 13.7108 49.3C13.7471 49.3 13.7956 49.3 13.832 49.3C13.832 49.3375 13.832 49.3875 13.832 49.425C13.832 50.6375 14.2925 51.7875 15.1288 52.65C15.9893 53.5375 17.1286 53.9875 18.2558 53.9875C18.2921 53.9875 18.3406 53.9875 18.377 53.9875C18.377 54.025 18.377 54.075 18.377 54.1125C18.377 55.325 18.8375 56.475 19.6738 57.3375C20.5343 58.225 21.6736 58.675 22.8008 58.675C22.8372 58.675 22.8856 58.675 22.922 58.675C22.922 58.7125 22.922 58.7625 22.922 58.8C22.922 60.0125 23.3826 61.1625 24.2188 62.025C25.0794 62.9125 26.2186 63.3625 27.3458 63.3625C28.473 63.3625 29.6123 62.9125 30.4728 62.025L31.0545 61.425L32.2544 62.6625C33.1149 63.55 34.2542 64 35.3814 64C36.5086 64 37.6478 63.55 38.5084 62.6625C39.3446 61.8 39.8052 60.65 39.8052 59.4375C39.8052 59.4125 39.8052 59.3875 39.8052 59.375C39.8294 59.375 39.8537 59.375 39.8658 59.375C41.0414 59.375 42.1565 58.9 42.9928 58.0375C43.8896 57.1125 44.3138 55.9 44.2775 54.6875C44.3138 54.6875 44.3623 54.6875 44.3987 54.6875C45.5743 54.6875 46.6894 54.2125 47.5257 53.35C48.4225 52.425 48.8467 51.2125 48.8104 50C48.8467 50 48.8952 50 48.9316 50C50.1072 50 51.2223 49.525 52.0585 48.6625C53.5372 47.1375 53.7432 44.8125 52.7009 43.05C53.0887 41.825 53.2827 40.5375 53.2827 39.2375V35.025L61.6455 26.375C62.1182 25.8875 62.1182 25.1 61.6455 24.6125ZM12.2564 46.2125C11.4807 45.4125 11.4807 44.1 12.2564 43.3L14.0501 41.45C14.4259 41.0625 14.9349 40.85 15.4682 40.85C16.0015 40.85 16.4984 41.0625 16.8862 41.45C17.6619 42.25 17.6619 43.5625 16.8862 44.3625L15.0925 46.2125C14.3047 47.0125 13.0321 47.0125 12.2564 46.2125ZM16.8014 50.9C16.0257 50.1 16.0257 48.7875 16.8014 47.9875L18.5952 46.1375C18.9709 45.75 19.4799 45.5375 20.0132 45.5375C20.5465 45.5375 21.0434 45.75 21.4312 46.1375C22.2069 46.9375 22.2069 48.25 21.4312 49.05L19.6375 50.9C18.8497 51.7 17.5771 51.7 16.8014 50.9ZM24.1582 55.575C23.3826 56.375 22.11 56.375 21.3343 55.575C20.5586 54.775 20.5586 53.4625 21.3343 52.6625L23.128 50.8125C23.5038 50.425 24.0128 50.2125 24.5461 50.2125C25.0794 50.2125 25.5763 50.425 25.9641 50.8125C26.7398 51.6125 26.7398 52.925 25.9641 53.725L24.1582 55.575ZM30.497 58.4125L28.7032 60.2625C27.9276 61.0625 26.655 61.0625 25.8793 60.2625C25.1036 59.4625 25.1036 58.15 25.8793 57.35L27.673 55.5C28.0488 55.1125 28.5578 54.9 29.0911 54.9C29.6244 54.9 30.1213 55.1125 30.5091 55.5C31.2848 56.3 31.2848 57.6 30.497 58.4125ZM30.9818 4.2875C30.3152 4.2875 29.7698 4.85 29.7698 5.5375V11.3125C29.7698 12 30.3152 12.5625 30.9818 12.5625C31.6484 12.5625 32.1938 12 32.1938 11.3125V5.5375C32.1938 4.85 31.6484 4.2875 30.9818 4.2875ZM31.8302 0.3625C31.5999 0.125 31.2969 0 30.9697 0C30.6425 0 30.3395 0.1375 30.1092 0.3625C29.8789 0.5875 29.7577 0.9125 29.7577 1.25C29.7577 1.5875 29.891 1.9 30.1092 2.1375C30.3395 2.375 30.6425 2.5 30.9697 2.5C31.2969 2.5 31.5999 2.3625 31.8302 2.1375C32.0605 1.9 32.1817 1.5875 32.1817 1.25C32.1817 0.9125 32.0605 0.6 31.8302 0.3625ZM39.5628 8.3375C39.0901 7.85 38.3265 7.85 37.8539 8.3375L35.5511 10.7125C35.0784 11.2 35.0784 11.9875 35.5511 12.475C35.7935 12.725 36.0965 12.8375 36.4116 12.8375C36.7267 12.8375 37.0297 12.7125 37.2721 12.475L39.5749 10.1C40.0355 9.6125 40.0355 8.825 39.5628 8.3375ZM26.3035 10.6L24.1098 8.3375C23.6371 7.85 22.8735 7.85 22.4008 8.3375C21.9282 8.825 21.9282 9.6125 22.4008 10.1L24.5946 12.3625C24.837 12.6125 25.14 12.725 25.4551 12.725C25.7702 12.725 26.0732 12.6 26.3156 12.3625C26.7762 11.875 26.7762 11.0875 26.3035 10.6ZM17.2862 21.525C17.0559 21.2875 16.7529 21.1625 16.4257 21.1625C16.1105 21.1625 15.7954 21.3 15.5651 21.525C15.3349 21.7625 15.2137 22.075 15.2137 22.4125C15.2137 22.7375 15.347 23.0625 15.5651 23.3C15.7954 23.5375 16.1105 23.6625 16.4257 23.6625C16.7408 23.6625 17.0559 23.525 17.2862 23.3C17.5165 23.0625 17.6377 22.75 17.6377 22.4125C17.6498 22.075 17.5165 21.75 17.2862 21.525Z" fill="#fff"/>
</svg>
