<svg width="62" height="60" viewBox="0 0 62 60" fill="none" xmlns="http://www.w3.org/2000/svg">
<path d="M47.9583 55C48.6243 55 49.1693 54.4375 49.1693 53.75C49.1693 53.0625 48.6243 52.5 47.9583 52.5C47.2922 52.5 46.7472 53.0625 46.7472 53.75C46.7472 54.4375 47.2922 55 47.9583 55ZM27.8545 55C28.5206 55 29.0656 54.4375 29.0656 53.75C29.0656 53.0625 28.5206 52.5 27.8545 52.5C27.1885 52.5 26.6435 53.0625 26.6435 53.75C26.6435 54.4375 27.1885 55 27.8545 55ZM61.7523 15.475C61.5222 15.175 61.171 15 60.7956 15H17.1972L14.4359 2.8875C14.0484 1.1875 12.5951 0 10.8996 0H3.6332C1.63494 0 0 1.6875 0 3.75C0 5.8125 1.63494 7.5 3.6332 7.5H8.01726L17.0518 47.1125C17.4394 48.8125 18.8926 50 20.5881 50H23.0103C22.2473 51.05 21.7992 52.35 21.7992 53.75C21.7992 57.2 24.512 60 27.8545 60C31.1971 60 33.9099 57.2 33.9099 53.75C33.9099 52.35 33.4618 51.05 32.6988 50H43.114C42.351 51.05 41.9029 52.35 41.9029 53.75C41.9029 57.2 44.6157 60 47.9583 60C51.3008 60 54.0136 57.2 54.0136 53.75C54.0136 52.35 53.5655 51.05 52.8025 50C54.8008 50 56.4357 48.3125 56.4357 46.25C56.4357 44.1875 54.8008 42.5 52.8025 42.5H23.4705L22.3321 37.5H29.4289H47.1105H54.0499C55.7212 37.5 57.1745 36.3375 57.5741 34.6625L61.9582 16.5625C62.0551 16.175 61.9824 15.7875 61.7523 15.475ZM57.4288 25H49.6901L50.5984 17.5H59.2454L57.4288 25ZM43.114 27.5H46.9531L46.0448 35H39.4808V31.25C39.4808 30.5625 38.9358 30 38.2697 30C37.6036 30 37.0587 30.5625 37.0587 31.25V35H30.4947L29.5864 27.5H33.4254C34.0915 27.5 34.6365 26.9375 34.6365 26.25C34.6365 25.5625 34.0915 25 33.4254 25H29.2836L28.3753 17.5H37.0587V21.25C37.0587 21.9375 37.6036 22.5 38.2697 22.5C38.9358 22.5 39.4808 21.9375 39.4808 21.25V17.5H48.1641L47.2558 25H43.114C42.4479 25 41.9029 25.5625 41.9029 26.25C41.9029 26.9375 42.4479 27.5 43.114 27.5ZM21.7508 35L20.0432 27.5H27.14L28.0483 35H21.7508ZM25.9411 17.5L26.8494 25H19.474L17.7664 17.5H25.9411ZM31.4877 53.75C31.4877 55.8125 29.8528 57.5 27.8545 57.5C25.8563 57.5 24.2213 55.8125 24.2213 53.75C24.2213 51.6875 25.8563 50 27.8545 50C29.8528 50 31.4877 51.6875 31.4877 53.75ZM51.5915 53.75C51.5915 55.8125 49.9565 57.5 47.9583 57.5C45.96 57.5 44.3251 55.8125 44.3251 53.75C44.3251 51.6875 45.96 50 47.9583 50C49.9565 50 51.5915 51.6875 51.5915 53.75ZM52.8025 45C53.4686 45 54.0136 45.5625 54.0136 46.25C54.0136 46.9375 53.4686 47.5 52.8025 47.5H20.5881C20.0189 47.5 19.5345 47.1 19.4134 46.5375L9.94286 5H3.6332C2.96711 5 2.42213 4.4375 2.42213 3.75C2.42213 3.0625 2.96711 2.5 3.6332 2.5H10.8996C11.4688 2.5 11.9532 2.9 12.0743 3.4625L19.6072 36.5C19.6072 36.5 19.6072 36.5 19.6072 36.5125L21.5449 45H52.8025ZM55.2368 34.05C55.1036 34.6125 54.6191 35 54.062 35H48.479L49.3873 27.5H56.8233L55.2368 34.05ZM38.2697 25C37.6036 25 37.0587 25.5625 37.0587 26.25C37.0587 26.9375 37.6036 27.5 38.2697 27.5C38.9358 27.5 39.4808 26.9375 39.4808 26.25C39.4808 25.5625 38.9358 25 38.2697 25Z" fill="#737780"/>
</svg>
