<svg width="58" height="60" viewBox="0 0 58 60" fill="none" xmlns="http://www.w3.org/2000/svg">
<path d="M56.8882 0H1.1351C0.507164 0 0 0.525 0 1.175V40.4375C0 41.0875 0.507164 41.6125 1.1351 41.6125H16.5798L16.8576 42.3125C17.3044 43.4375 17.5338 44.625 17.5338 45.85V46.6625C17.5338 47.9625 18.0289 49.1875 18.9104 50.1125L20.3112 51.5625C20.5768 51.8375 20.7338 52.2125 20.7338 52.6V53.925H20.6614C20.3595 53.925 20.0697 54.05 19.8523 54.275C19.6349 54.5 19.5142 54.8 19.5142 55.1125V58.825C19.5142 59.475 20.0214 60 20.6493 60H33.9446C34.2464 60 34.5363 59.875 34.7536 59.65C34.971 59.425 35.0917 59.125 35.0797 58.8125V55.1C35.0797 54.5 34.6449 54.0125 34.0895 53.9375V52.1625C34.0895 51.975 34.1498 51.8 34.2464 51.65L34.5363 51.2375C35.0797 50.4625 35.3695 49.5375 35.3695 48.575V41.6125H56.864C57.492 41.6125 57.9992 41.0875 57.9992 40.4375V1.175C58.0233 0.525 57.5162 0 56.8882 0ZM20.5285 48.4375C20.0697 47.9625 19.8161 47.325 19.8161 46.65V45.8375C19.8161 44.3125 19.5263 42.8125 18.9708 41.4L18.4515 40.1125C18.4274 40.0125 18.3911 39.925 18.3428 39.85L17.7029 38.2375C17.6908 38.2125 17.6908 38.175 17.7149 38.15C17.7391 38.1125 17.7874 38.0875 17.8236 38.1125C18.3791 38.2875 18.85 38.675 19.1278 39.2125L19.4055 39.75C19.7919 40.5 20.0697 41.3 20.2146 42.125L20.3595 42.9C20.4682 43.5 20.9995 43.9125 21.5791 43.85C22.1587 43.8 22.6055 43.2875 22.6055 42.675V29.7625C22.6055 29.65 22.6538 29.525 22.7263 29.4375L22.7384 29.425C22.8471 29.3 22.9799 29.275 23.0523 29.275C23.1248 29.275 23.2576 29.2875 23.3784 29.4C23.475 29.4875 23.5233 29.6125 23.5233 29.75V39.9625C23.5233 40.6125 24.0305 41.1375 24.6584 41.1375C25.2863 41.1375 25.7935 40.6125 25.7935 39.9625V35.15C25.7935 35.0625 25.8297 34.975 25.9022 34.925C26.1075 34.75 26.3973 34.775 26.5784 34.9625C26.675 35.0625 26.7233 35.1875 26.7233 35.325V40.425C26.7233 41.075 27.2305 41.6 27.8584 41.6C28.4864 41.6 28.9936 41.075 28.9936 40.425V37.3C28.9936 37 29.1505 36.7125 29.392 36.55C29.4886 36.5 29.6215 36.5 29.7181 36.5625C29.8147 36.625 29.8751 36.7375 29.8751 36.85V41.25C29.8751 41.9 30.3822 42.425 31.0102 42.425C31.6381 42.425 32.1453 41.9 32.1453 41.25V39.85C32.1453 39.6375 32.2057 39.4375 32.3264 39.2625C32.4109 39.1375 32.5196 39.0625 32.6283 39.05C32.7008 39.0375 32.8457 39.05 32.9664 39.1625C33.063 39.25 33.1113 39.375 33.1113 39.5V48.5625C33.1113 49.025 32.9664 49.475 32.7128 49.85L32.423 50.2625C32.0366 50.8125 31.8313 51.475 31.8313 52.1625V53.9H23.004V52.5875C23.004 51.5625 22.6176 50.6 21.9172 49.875L20.5285 48.4375ZM24.9241 27.675C24.3927 27.1625 23.6924 26.9 22.9557 26.925C22.2312 26.9625 21.555 27.275 21.0599 27.8375L21.0478 27.85C20.5889 28.375 20.3233 29.05 20.3233 29.7625V29.825H9.73295V20.5875H48.2783V29.825H25.7935V29.75C25.8056 28.9625 25.4795 28.2 24.9241 27.675ZM21.8086 57.65V56.2875H32.8336V57.65H21.8086ZM35.3815 39.2625C35.3212 38.55 35.0072 37.8875 34.488 37.4C33.9204 36.875 33.1596 36.625 32.3989 36.7C32.3143 36.7125 32.2298 36.725 32.1574 36.7375C32.1211 35.85 31.6743 35.0375 30.9377 34.5625C30.2977 34.15 29.5249 34.05 28.8245 34.2625C28.6916 33.9125 28.4864 33.5875 28.2328 33.3125C27.5807 32.6125 26.675 32.325 25.8177 32.475V32.175H49.4375C50.0655 32.175 50.5727 31.65 50.5727 31V19.4125C50.5727 18.7625 50.0655 18.2375 49.4375 18.2375H8.60992C7.98199 18.2375 7.47479 18.7625 7.47479 19.4125V31C7.47479 31.65 7.98199 32.175 8.60992 32.175H20.3474V36.9875C19.8402 36.4625 19.2002 36.075 18.4878 35.85C17.4734 35.5375 16.3625 35.9625 15.7949 36.8875C15.3843 37.5625 15.3119 38.4 15.6017 39.1375L15.65 39.2625H2.28228V15.0125H43.5084C44.1364 15.0125 44.6435 14.4875 44.6435 13.8375C44.6435 13.1875 44.1364 12.6625 43.5084 12.6625H2.28228V2.35H55.7531V12.65H52.4564C51.8285 12.65 51.3214 13.175 51.3214 13.825C51.3214 14.475 51.8285 15 52.4564 15H55.7531V39.25H35.3815V39.2625ZM7.24537 4.0125C5.40987 4.0125 3.91249 5.5625 3.91249 7.4625C3.91249 9.3625 5.40987 10.9125 7.24537 10.9125C9.08086 10.9125 10.5782 9.3625 10.5782 7.4625C10.5782 5.55 9.08086 4.0125 7.24537 4.0125ZM7.24537 8.55C6.66574 8.55 6.18271 8.0625 6.18271 7.45C6.18271 6.85 6.65366 6.35 7.24537 6.35C7.825 6.35 8.30803 6.8375 8.30803 7.45C8.29595 8.0625 7.825 8.55 7.24537 8.55ZM15.2394 4.0125C13.4039 4.0125 11.9066 5.5625 11.9066 7.4625C11.9066 9.3625 13.4039 10.9125 15.2394 10.9125C17.0749 10.9125 18.5723 9.3625 18.5723 7.4625C18.5723 5.55 17.0749 4.0125 15.2394 4.0125ZM15.2394 8.55C14.6598 8.55 14.1768 8.0625 14.1768 7.45C14.1768 6.85 14.6477 6.35 15.2394 6.35C15.819 6.35 16.3021 6.8375 16.3021 7.45C16.3021 8.0625 15.819 8.55 15.2394 8.55ZM23.2093 4.0125C21.3738 4.0125 19.8765 5.5625 19.8765 7.4625C19.8765 9.3625 21.3738 10.9125 23.2093 10.9125C25.0448 10.9125 26.5422 9.3625 26.5422 7.4625C26.5422 5.55 25.0569 4.0125 23.2093 4.0125ZM23.2093 8.55C22.6297 8.55 22.1467 8.0625 22.1467 7.45C22.1467 6.85 22.6176 6.35 23.2093 6.35C23.7889 6.35 24.272 6.8375 24.272 7.45C24.272 8.0625 23.801 8.55 23.2093 8.55ZM27.1097 26.75L27.9068 25.6C28.269 25.075 28.1603 24.3375 27.6411 23.9625C27.1339 23.5875 26.4214 23.7 26.0592 24.2375L25.2622 25.3875C24.8999 25.9125 25.0086 26.65 25.5278 27.025C25.7331 27.175 25.9626 27.25 26.192 27.25C26.5301 27.2375 26.8803 27.0625 27.1097 26.75ZM23.1248 22.8C22.4969 22.8 21.9897 23.325 21.9897 23.975V25.3875C21.9897 26.0375 22.4969 26.5625 23.1248 26.5625C23.7527 26.5625 24.2599 26.0375 24.2599 25.3875V23.975C24.2599 23.3375 23.7527 22.8 23.1248 22.8ZM20.3836 24.225C20.0214 23.7 19.3089 23.575 18.8017 23.95C18.2945 24.325 18.1738 25.0625 18.5361 25.5875L19.3331 26.7375C19.5504 27.0625 19.9006 27.225 20.2629 27.225C20.4923 27.225 20.7218 27.15 20.927 27C21.4342 26.625 21.555 25.8875 21.1927 25.3625L20.3836 24.225ZM41.6126 24.625H45.5613C46.1892 24.625 46.6964 24.1 46.6964 23.45C46.6964 22.8 46.1892 22.275 45.5613 22.275H41.6126C40.9846 22.275 40.4774 22.8 40.4774 23.45C40.4774 24.1 40.9846 24.625 41.6126 24.625ZM48.7734 12.9125L48.7372 12.8875C48.2421 12.5 47.5175 12.6 47.1432 13.1125C46.7688 13.625 46.8654 14.375 47.3605 14.7625L47.3968 14.7875C47.6021 14.95 47.8436 15.025 48.0851 15.025C48.4232 15.025 48.7734 14.8625 48.9908 14.5625C49.3651 14.05 49.2685 13.3 48.7734 12.9125Z" fill="#737780"/>
</svg>
