<svg width="53" height="60" viewBox="0 0 53 60" fill="none" xmlns="http://www.w3.org/2000/svg">
<path d="M52.0518 28.5372L47.1651 23.5537V1.23967C47.1651 0.557851 46.6181 0 45.9495 0H7.05046C6.38188 0 5.83486 0.557851 5.83486 1.23967V22.562L0.948164 27.5455C0.316054 28.1901 0 28.9463 0 29.8017V56.7769C0 58.5496 1.42225 60 3.16055 60H49.8395C51.5778 60 53 58.5496 53 56.7769V30.7934C52.9878 29.876 52.6353 29.0331 52.0518 28.5372ZM3.16055 28.7603L5.8227 26.0331V30.2727L3.16055 28.7603ZM47.153 31.1653V27.124L49.7179 29.7397L47.153 31.1653ZM44.7218 32.4298L26.8404 42.2851C26.7431 42.3595 26.6216 42.3967 26.4878 42.3967C26.3541 42.3967 26.2447 42.3595 26.1232 42.2851L8.25389 31.7479V2.47934H44.7218V32.4298ZM50.5567 32.1198V56.7769C50.5567 57.2355 50.2771 57.5207 49.8273 57.5207H3.14839C2.69862 57.5207 2.41903 57.2355 2.41903 56.7769V31.1281L24.9076 44.405C25.3695 44.6653 25.9044 44.814 26.4392 44.814C26.9741 44.814 27.4968 44.6777 27.9587 44.4174L50.5567 32.1198ZM18.5014 12.8306C18.319 10.5248 19.0606 8.31818 20.6044 6.61983C22.1239 4.94628 24.2755 3.97934 26.5 3.97934C27.3023 3.97934 28.1167 4.1157 28.9312 4.37603C29.2716 4.4876 29.5511 4.73554 29.6849 5.07025C29.8186 5.40496 29.8064 5.77686 29.6484 6.09917C29.4417 6.52066 29.0284 6.78099 28.5665 6.78099C28.4328 6.78099 28.3112 6.7562 28.1897 6.71901C27.6427 6.54545 27.0835 6.45868 26.5 6.45868C24.9197 6.45868 23.4002 7.15289 22.3305 8.36777C21.2729 9.58264 20.7624 11.2066 20.9447 12.8182C21.2365 15.4215 23.303 17.5289 25.8557 17.8264C26.0745 17.8512 26.2812 17.8636 26.5 17.8636C29.2594 17.8636 31.6298 15.7562 32.031 12.9793C32.1161 12.3595 32.6144 11.9132 33.2222 11.9132H33.2466C33.5991 11.9132 33.9273 12.062 34.1583 12.3347C34.3892 12.6074 34.4865 12.9545 34.4378 13.314C33.8787 17.3058 30.4628 20.3306 26.5 20.3306C26.2812 20.3306 26.0624 20.3182 25.8436 20.3058C21.9658 19.9835 18.8053 16.7727 18.5014 12.8306ZM26.4878 12.3967L31.7757 7.01653C32.0066 6.78099 32.2984 6.65702 32.6266 6.65702C32.9427 6.65702 33.2466 6.78099 33.4775 7.01653C33.7085 7.25207 33.83 7.54959 33.83 7.8843C33.83 8.20661 33.7085 8.51653 33.4775 8.75207L27.3509 15C27.12 15.2355 26.8161 15.3595 26.5 15.3595C26.1839 15.3595 25.88 15.2355 25.6491 15L23.4124 12.719C23.1814 12.4835 23.0599 12.186 23.0599 11.8512C23.0599 11.5289 23.1814 11.219 23.4124 10.9835C23.6433 10.7479 23.9351 10.624 24.2633 10.624C24.5794 10.624 24.8833 10.7479 25.1142 10.9835L26.4878 12.3967ZM34.2677 21.8182H41.075C41.7436 21.8182 42.2906 22.376 42.2906 23.0578C42.2906 23.7397 41.7436 24.2975 41.075 24.2975H34.2677C33.5991 24.2975 33.0521 23.7397 33.0521 23.0578C33.0521 22.376 33.5991 21.8182 34.2677 21.8182ZM10.6851 27.0248C10.6851 26.343 11.2321 25.7851 11.9007 25.7851H18.708C19.3766 25.7851 19.9236 26.343 19.9236 27.0248C19.9236 27.7066 19.3766 28.2645 18.708 28.2645H11.9007C11.2321 28.2645 10.6851 27.7066 10.6851 27.0248ZM10.6851 30.9917C10.6851 30.3099 11.2321 29.7521 11.9007 29.7521H41.075C41.7436 29.7521 42.2906 30.3099 42.2906 30.9917C42.2906 31.6736 41.7557 32.2314 41.075 32.2314H11.9007C11.2321 32.2314 10.6851 31.6736 10.6851 30.9917ZM35.4833 34.9587C35.4833 35.6405 34.9484 36.1983 34.2677 36.1983H18.708C18.0394 36.1983 17.4924 35.6405 17.4924 34.9587C17.4924 34.2769 18.0394 33.719 18.708 33.719H34.2677C34.9362 33.719 35.4833 34.2769 35.4833 34.9587ZM13.1163 52.8099C13.1163 53.4917 12.5693 54.0496 11.9007 54.0496H6.06582C5.39724 54.0496 4.85022 53.4917 4.85022 52.8099C4.85022 52.1281 5.39724 51.5702 6.06582 51.5702H11.9007C12.5814 51.5702 13.1163 52.1281 13.1163 52.8099ZM41.075 25.7851C41.7557 25.7851 42.2906 26.343 42.2906 27.0248C42.2906 27.7066 41.7436 28.2645 41.075 28.2645H22.5979C21.9294 28.2645 21.3823 27.7066 21.3823 27.0248C21.3823 26.343 21.9294 25.7851 22.5979 25.7851H41.075ZM10.6851 23.0578C10.6851 22.376 11.2321 21.8182 11.9007 21.8182H30.3777C31.0463 21.8182 31.5933 22.376 31.5933 23.0578C31.5933 23.7397 31.0463 24.2975 30.3777 24.2975H11.9007C11.2321 24.2975 10.6851 23.7397 10.6851 23.0578Z" fill="#737780"/>
</svg>
