<svg width="58" height="60" viewBox="0 0 58 60" fill="none" xmlns="http://www.w3.org/2000/svg">
<path d="M56.917 39.834H49.2158C48.6141 39.834 48.1328 40.332 48.1328 40.9544V42.971L45.8465 41.5519C45.0763 41.0788 44.1979 40.8299 43.3075 40.8299H39.6133C38.8431 40.8299 38.0851 40.9295 37.339 41.1286L26.2203 44.2158C25.017 44.5643 24.0303 45.473 23.561 46.668L13.8983 41.2656C13.3087 40.917 12.6349 40.7303 11.949 40.7303C11.6963 40.7303 11.4436 40.7552 11.1909 40.805C10.8419 40.8672 10.505 40.9917 10.1801 41.1535C9.44607 41.5145 8.85643 42.0871 8.4834 42.7967C8.14647 43.4066 7.96597 44.1037 7.96597 44.8382C7.95394 46.2946 8.7 47.6639 9.92739 48.3983L27.4838 59.2407C28.266 59.7386 29.1685 60 30.083 60H43.6444C44.2822 60 44.8959 59.8755 45.4614 59.639L48.1207 58.5436V58.8672C48.1207 59.4896 48.6021 59.9876 49.2037 59.9876H56.905C57.5066 59.9876 57.988 59.4896 57.988 58.8672V40.9544C58 40.332 57.5187 39.834 56.917 39.834ZM48.1328 56.1411L44.6672 57.5477C44.3423 57.6846 43.9934 57.7469 43.6564 57.7469H30.083C29.5656 57.7469 29.0602 57.5975 28.6149 57.2988L11.0705 46.4564C10.517 46.1203 10.168 45.4979 10.168 44.8382C10.168 44.527 10.2523 44.1909 10.4087 43.9046C10.5892 43.5809 10.8539 43.3195 11.1909 43.1701C11.3232 43.1079 11.4676 43.0456 11.6481 43.0207C11.7685 42.9958 11.8768 42.9834 11.9971 42.9834C12.322 42.9834 12.6228 43.0705 12.8755 43.2324L23.4286 49.1328C23.4286 49.1452 23.4286 49.1452 23.4286 49.1577C23.4286 49.195 23.4407 49.2324 23.4407 49.2697C23.91 51.0622 25.4863 52.3071 27.2792 52.3071C27.8207 52.2573 28.3623 52.1577 28.8917 52.0083L37.9647 49.4938C38.5423 49.3444 38.8913 48.722 38.7348 48.1245C38.6145 47.6266 38.1813 47.2905 37.688 47.2905C37.5917 47.2905 37.5075 47.3029 37.4112 47.3278L28.3743 49.8299C27.9411 49.9295 27.3875 50.0539 27.2792 50.0664C26.461 50.0664 25.751 49.4938 25.5344 48.6846C25.4983 48.5726 25.4863 48.4606 25.4743 48.3361C25.4743 48.249 25.4622 48.0871 25.4743 48.0249C25.5465 47.2531 26.0759 46.5934 26.81 46.3817L37.9286 43.3071C38.4701 43.1577 39.0477 43.0705 39.6373 43.0705H43.3315C43.8249 43.0705 44.3182 43.2075 44.7514 43.4813L48.1328 45.5726V56.1411ZM55.822 57.7593H50.2867V42.0747H55.822V57.7593ZM56.917 7.9668H39.866L34.7398 2.6639C33.0913 0.946058 30.8892 0 28.5307 0H16.4253C15.6793 0 14.9332 0.174274 14.2232 0.53527L12.0693 1.6556C11.6842 1.85477 11.2751 1.95436 10.8539 1.95436C10.8178 1.95436 10.7697 1.95436 10.7216 1.95436L9.86722 1.91701V1.12033C9.86722 0.497925 9.38589 0 8.78423 0H1.08299C0.481328 0 0 0.497925 0 1.12033V21.0373C0 21.6598 0.481328 22.1577 1.08299 22.1577H8.78423C9.38589 22.1577 9.86722 21.6598 9.86722 21.0373V19.1701H11.3473L11.8888 19.5436C13.5013 20.6515 15.3784 21.2988 17.3278 21.3859V32.9876C17.3278 33.61 17.8091 34.1079 18.4108 34.1079H56.917C57.5187 34.1079 58 33.61 58 32.9876V9.08714C58 8.46473 57.5187 7.9668 56.917 7.9668ZM7.6892 19.917H2.15393V2.24066H7.6892V19.917ZM16.7502 11.6639C16.5938 11.5394 16.4133 11.4647 16.2208 11.4647C15.9681 11.4647 15.7274 11.5892 15.5709 11.7884L15.2581 12.1867C14.9573 12.5602 15.0174 13.0954 15.3904 13.4066C15.968 13.8797 16.6178 14.2656 17.3037 14.5394V19.1452C15.8116 19.0456 14.3556 18.5477 13.0921 17.6763L12.5025 17.2656C12.1655 17.0415 11.7805 16.917 11.3954 16.917H9.86722V4.15768L10.6494 4.19502C10.6975 4.19502 10.7577 4.19502 10.8058 4.19502C11.588 4.19502 12.3461 4.0083 13.032 3.65975L15.1859 2.53942C15.5589 2.34025 15.9801 2.24066 16.4253 2.24066H28.5307C30.2996 2.24066 31.9602 2.95021 33.2116 4.24481L36.8095 7.9668H29.2046L27.5801 6.28631C27.3755 6.07469 27.1108 5.96266 26.81 5.96266C26.5091 5.96266 26.2444 6.07469 26.0398 6.28631C25.8353 6.49793 25.727 6.77178 25.727 7.08299C25.727 7.38174 25.8353 7.66805 26.0398 7.87967L32.1647 14.2158C32.5137 14.5768 32.6942 15.0373 32.6942 15.5353C32.6942 16.0332 32.5017 16.5062 32.1647 16.8548C31.8158 17.2158 31.3705 17.4025 30.8892 17.4025C30.4079 17.4025 29.9506 17.2033 29.6137 16.8548L24.5598 11.6266C24.3552 11.4149 24.0784 11.3029 23.8017 11.3029C23.5369 11.3029 23.2963 11.4025 23.0917 11.5768C22.2012 12.3734 21.0581 12.8091 19.8788 12.8091C18.7357 12.8091 17.6286 12.3983 16.7502 11.6639ZM34.8 25.2946C35.6544 25.917 36.6531 26.2531 37.688 26.2531C39.2402 26.2531 40.6722 25.5311 41.6228 24.2739C43.2714 22.0954 42.9705 18.971 40.949 17.166C40.0465 16.3568 38.8913 15.9212 37.7 15.9212C36.5569 15.9212 35.4498 16.332 34.5714 17.0539C34.9324 16.1452 34.9564 15.112 34.6436 14.1784H47.2544C47.6996 16.6556 49.5768 18.5851 51.9593 19.0456V22.9793C49.5647 23.4398 47.6996 25.3817 47.2544 27.8465H28.0373C27.5921 25.3693 25.7149 23.4398 23.3324 22.9793V19.0456C24.656 18.8091 25.8473 18.0996 26.7257 17.029L28.0855 18.4357C28.8436 19.2075 29.8303 19.6183 30.8892 19.6183C31.7195 19.6183 32.5137 19.3568 33.1876 18.8714C32.1647 21.1245 32.8025 23.8257 34.8 25.2946ZM35.6183 19.0954C36.1477 18.5104 36.8938 18.1618 37.6759 18.1618C37.7481 18.1618 37.8203 18.1618 37.8925 18.1743C39.2402 18.2863 40.3232 19.4066 40.4315 20.8008C40.4917 21.61 40.239 22.3817 39.7095 22.9668C39.1801 23.5519 38.434 23.9004 37.6519 23.9004C37.5797 23.9004 37.5075 23.9004 37.4353 23.888C36.0876 23.7759 35.0046 22.6556 34.8963 21.2614C34.8361 20.4523 35.0888 19.6929 35.6183 19.0954ZM55.822 31.8672H19.4817V15.0249C19.6261 15.0373 19.7585 15.0373 19.9029 15.0373C21.2265 15.0373 22.5382 14.6515 23.6813 13.9046L25.1734 15.4481C24.4755 16.3817 23.3925 16.9295 22.2494 16.9295C21.6477 16.9295 21.1664 17.4274 21.1664 18.0498V24.0249C21.1664 24.6473 21.6477 25.1452 22.2494 25.1452C24.307 25.1452 25.9797 26.8755 25.9797 29.0041C25.9797 29.6266 26.461 30.1245 27.0626 30.1245H48.2411C48.8427 30.1245 49.3241 29.6266 49.3241 29.0041C49.3241 26.8755 50.9967 25.1452 53.0543 25.1452C53.656 25.1452 54.1373 24.6473 54.1373 24.0249V18.0498C54.1373 17.4274 53.656 16.9295 53.0543 16.9295C50.9967 16.9295 49.3241 15.1992 49.3241 13.0705C49.3241 12.4481 48.8427 11.9502 48.2411 11.9502H33.0432L31.3585 10.2075H55.822V31.8672Z" fill="#fff"/>
</svg>
