<svg width="20" height="20" viewBox="0 0 20 20" fill="none" xmlns="http://www.w3.org/2000/svg">
<path d="M14.0759 19.4079C13.1165 19.4104 12.1751 19.1473 11.3559 18.6479H11.3319C10.8979 18.7155 10.4592 18.7489 10.0199 18.7479C8.77309 18.7507 7.54039 18.4837 6.40651 17.965C5.27263 17.4464 4.26444 16.6885 3.45118 15.7433C2.63792 14.7982 2.03885 13.6883 1.69513 12.4897C1.35141 11.2912 1.27118 10.0324 1.45995 8.79991V8.77591C0.845627 7.77314 0.586764 6.59276 0.725063 5.42493C0.863361 4.2571 1.39077 3.16983 2.22232 2.33828C3.05387 1.50674 4.14113 0.979328 5.30896 0.841029C6.47679 0.70273 7.65717 0.961593 8.65995 1.57591C9.1034 1.50636 9.55114 1.46761 9.99995 1.45991C14.9999 1.39591 18.6399 5.33591 18.6399 10.0999C18.6396 10.5406 18.6048 10.9806 18.5359 11.4159V11.4399C19.0175 12.2336 19.2794 13.1411 19.2947 14.0694C19.3101 14.9976 19.0783 15.9133 18.6233 16.7225C18.1682 17.5317 17.5061 18.2053 16.705 18.6744C15.9038 19.1435 14.9923 19.3911 14.0639 19.3919L14.0759 19.4079ZM6.45195 11.5279C6.17119 11.5194 5.89829 11.6213 5.69195 11.8119C5.59812 11.8985 5.52335 12.0037 5.47239 12.1208C5.42143 12.2378 5.3954 12.3642 5.39595 12.4919C5.41478 13.0007 5.58776 13.4917 5.89195 13.8999C6.22226 14.3816 6.66237 14.7778 7.17595 15.0559C8.05449 15.4867 9.02617 15.6929 10.0039 15.6559C10.849 15.6749 11.6893 15.5253 12.4759 15.2159C13.1135 14.978 13.669 14.5614 14.0759 14.0159C14.4358 13.5016 14.626 12.8876 14.6199 12.2599C14.6332 11.7823 14.5259 11.3091 14.3079 10.8839C14.0968 10.5072 13.7959 10.1884 13.4319 9.95591C13.0117 9.69009 12.5585 9.48031 12.0839 9.33191C11.5479 9.16391 10.9519 9.00391 10.3119 8.86391C9.73995 8.73191 9.39595 8.64391 9.19195 8.58791C8.96085 8.52295 8.73702 8.43449 8.52395 8.32391C8.32422 8.22895 8.14697 8.0926 8.00395 7.92391C7.87861 7.76759 7.81208 7.57225 7.81595 7.37191C7.82394 7.18951 7.87944 7.01236 7.97697 6.858C8.07449 6.70365 8.21065 6.57745 8.37195 6.49191C8.8107 6.22914 9.31703 6.10117 9.82795 6.12391C10.3237 6.08256 10.8197 6.20025 11.2439 6.45991C11.5588 6.71229 11.8164 7.02859 11.9999 7.38791C12.1141 7.61344 12.2625 7.81989 12.4399 7.99991C12.6154 8.13574 12.8345 8.20262 13.0559 8.18791C13.195 8.19143 13.3331 8.16545 13.4614 8.11167C13.5896 8.05789 13.705 7.97754 13.7999 7.87591C13.9885 7.68809 14.0961 7.43401 14.0999 7.16791C14.0937 6.86181 14.0113 6.56209 13.8599 6.29591C13.6713 5.96159 13.4152 5.6701 13.1079 5.43991C12.7187 5.1515 12.2812 4.93478 11.8159 4.79991C11.2174 4.62405 10.5956 4.54043 9.97195 4.55191C9.18139 4.53773 8.39458 4.66367 7.64795 4.92391C7.055 5.12723 6.53203 5.49484 6.13995 5.98391C5.78956 6.43297 5.59948 6.98634 5.59995 7.55591C5.58235 8.11729 5.75738 8.66778 6.09595 9.11591C6.45094 9.55253 6.9105 9.89238 7.43195 10.1039C8.10635 10.3812 8.80546 10.5942 9.51995 10.7399C10.1359 10.8679 10.6359 10.9959 11.0039 11.1119C11.3416 11.2094 11.6522 11.3832 11.9119 11.6199C12.0273 11.7304 12.1177 11.8644 12.177 12.0127C12.2363 12.161 12.2633 12.3203 12.2559 12.4799C12.2568 12.7049 12.1994 12.9263 12.0894 13.1226C11.9793 13.3188 11.8204 13.4833 11.6279 13.5999C11.1241 13.9177 10.5351 14.074 9.93995 14.0479C9.52885 14.0607 9.11975 13.9857 8.73995 13.8279C8.45849 13.6981 8.21176 13.5034 8.01995 13.2599C7.82052 12.9943 7.65398 12.7055 7.52395 12.3999C7.43067 12.1508 7.28151 11.9264 7.08795 11.7439C6.90905 11.5974 6.68309 11.5206 6.45195 11.5279Z" fill="#676971"/>
</svg>
