<svg width="18" height="16" viewBox="0 0 18 16" fill="none" xmlns="http://www.w3.org/2000/svg">
<path d="M17.8321 2.61995C17.1718 2.91509 16.4704 3.10797 15.7521 3.19195C16.5125 2.74396 17.0819 2.03221 17.3521 1.19195C16.6409 1.61376 15.8632 1.91135 15.0521 2.07195C14.5544 1.54226 13.9091 1.17427 13.1998 1.01566C12.4905 0.857056 11.7499 0.915142 11.074 1.18239C10.3981 1.44965 9.8181 1.91375 9.40909 2.51454C9.00007 3.11534 8.78094 3.82514 8.78008 4.55195C8.77923 4.82945 8.81145 5.10607 8.87608 5.37595C7.43483 5.30602 6.02441 4.93369 4.73643 4.28316C3.44845 3.63262 2.31172 2.71842 1.40008 1.59995C0.936091 2.39781 0.793635 3.34251 1.00171 4.24172C1.2098 5.14092 1.75277 5.92701 2.52008 6.43995C1.94494 6.42387 1.38225 6.26878 0.880078 5.98795V5.99995C0.876888 6.84163 1.16645 7.65823 1.69916 8.30988C2.23187 8.96154 2.97458 9.4077 3.80008 9.57195C3.4886 9.6573 3.16704 9.70036 2.84408 9.69995C2.61573 9.69972 2.38796 9.67695 2.16408 9.63195C2.3955 10.3521 2.84598 10.982 3.45263 11.4337C4.05928 11.8855 4.79185 12.1366 5.54808 12.1519C4.26467 13.1595 2.67971 13.7061 1.04808 13.7039C0.759327 13.7029 0.47087 13.6856 0.184082 13.6519C1.84111 14.7174 3.7701 15.2826 5.74008 15.2799C12.4041 15.2799 16.0521 9.75595 16.0521 4.96795C16.0521 4.81195 16.0521 4.65195 16.0521 4.49995C16.7621 3.98618 17.3744 3.34947 17.8601 2.61995H17.8321Z" fill="#676971"/>
</svg>
