<svg width="20" height="20" viewBox="0 0 20 20" fill="none" xmlns="http://www.w3.org/2000/svg">
<path d="M14.144 0.859863H5.85601C4.50447 0.859863 3.20828 1.39676 2.25259 2.35245C1.29691 3.30813 0.76001 4.60432 0.76001 5.95586V14.2479C0.76001 14.9169 0.89185 15.5794 1.148 16.1974C1.40414 16.8155 1.77958 17.377 2.25284 17.8499C2.7261 18.3228 3.28791 18.6977 3.90616 18.9534C4.52441 19.2091 5.18698 19.3404 5.85601 19.3399H14.144C14.813 19.3404 15.4756 19.2091 16.0939 18.9534C16.7121 18.6977 17.2739 18.3228 17.7472 17.8499C18.2204 17.377 18.5959 16.8155 18.852 16.1974C19.1082 15.5794 19.24 14.9169 19.24 14.2479V5.95586C19.24 5.28665 19.1082 4.62398 18.8521 4.00571C18.596 3.38743 18.2206 2.82565 17.7474 2.35245C17.2742 1.87924 16.7124 1.50387 16.0942 1.24777C15.4759 0.991675 14.8132 0.859863 14.144 0.859863ZM10 14.9719C9.03642 14.9719 8.09447 14.6861 7.29327 14.1508C6.49207 13.6154 5.86762 12.8545 5.49887 11.9643C5.13012 11.0741 5.03364 10.0945 5.22162 9.14938C5.40961 8.20431 5.87362 7.3362 6.55499 6.65484C7.23635 5.97348 8.10445 5.50946 9.04953 5.32148C9.9946 5.13349 10.9742 5.22997 11.8644 5.59872C12.7547 5.96747 13.5156 6.59193 14.0509 7.39312C14.5863 8.19432 14.872 9.13627 14.872 10.0999C14.872 11.392 14.3587 12.6312 13.445 13.5449C12.5314 14.4586 11.2921 14.9719 10 14.9719ZM15.036 6.17186C14.82 6.17186 14.6089 6.10782 14.4293 5.98783C14.2497 5.86784 14.1098 5.69729 14.0271 5.49775C13.9445 5.29822 13.9229 5.07865 13.965 4.86682C14.0071 4.655 14.1111 4.46042 14.2638 4.3077C14.4166 4.15498 14.6111 4.05098 14.823 4.00885C15.0348 3.96671 15.2544 3.98834 15.4539 4.07099C15.6534 4.15364 15.824 4.2936 15.944 4.47318C16.064 4.65276 16.128 4.86389 16.128 5.07986C16.1248 5.36739 16.0084 5.64208 15.804 5.84428C15.5995 6.04648 15.3236 6.15988 15.036 6.15986V6.17186ZM10 6.92386C9.37186 6.92386 8.75781 7.11013 8.23552 7.45911C7.71323 7.8081 7.30615 8.30412 7.06577 8.88446C6.82538 9.4648 6.76249 10.1034 6.88504 10.7195C7.00758 11.3356 7.31007 11.9015 7.75424 12.3456C8.19841 12.7898 8.76432 13.0923 9.3804 13.2148C9.99649 13.3374 10.6351 13.2745 11.2154 13.0341C11.7957 12.7937 12.2918 12.3866 12.6408 11.8644C12.9897 11.3421 13.176 10.728 13.176 10.0999C13.176 9.25753 12.8414 8.44971 12.2458 7.85409C11.6502 7.25848 10.8423 6.92386 10 6.92386Z" fill="#676971"/>
</svg>
