<svg width="16" height="12" viewBox="0 0 16 12" fill="none" xmlns="http://www.w3.org/2000/svg">
<path d="M14.4 0.400024H1.6C0.72 0.400024 0 1.12002 0 2.00002V10C0 10.88 0.72 11.6 1.6 11.6H14.4C15.28 11.6 16 10.88 16 10V2.00002C16 1.12002 15.28 0.400024 14.4 0.400024ZM7.2 2.80002H8.8V4.40002H7.2V2.80002ZM7.2 5.20002H8.8V6.80002H7.2V5.20002ZM4.8 2.80002H6.4V4.40002H4.8V2.80002ZM4.8 5.20002H6.4V6.80002H4.8V5.20002ZM4 6.80002H2.4V5.20002H4V6.80002ZM4 4.40002H2.4V2.80002H4V4.40002ZM11.2 10H4.8V8.40002H11.2V10ZM11.2 6.80002H9.6V5.20002H11.2V6.80002ZM11.2 4.40002H9.6V2.80002H11.2V4.40002ZM13.6 6.80002H12V5.20002H13.6V6.80002ZM13.6 4.40002H12V2.80002H13.6V4.40002Z" fill="#E6EAF2"/>
</svg>
