<svg width="10" height="14" viewBox="0 0 10 14" fill="none" xmlns="http://www.w3.org/2000/svg">
<path d="M8.65711 4.86676H8.04759V3.64772C8.04759 1.94105 6.70664 0.600098 4.99997 0.600098C3.2933 0.600098 1.95235 1.94105 1.95235 3.64772V4.86676H1.34283C0.672351 4.86676 0.123779 5.41534 0.123779 6.08581V12.181C0.123779 12.8515 0.672351 13.4001 1.34283 13.4001H8.65711C9.32759 13.4001 9.87616 12.8515 9.87616 12.181V6.08581C9.87616 5.41534 9.32759 4.86676 8.65711 4.86676ZM4.99997 1.75819C6.03616 1.75819 6.88949 2.61153 6.88949 3.64772V4.86676H3.1714V3.64772H3.11045C3.11045 2.61153 3.96378 1.75819 4.99997 1.75819ZM8.65711 12.181H1.34283V6.08581H8.65711V12.181ZM4.99997 10.3525C5.67045 10.3525 6.21902 9.80391 6.21902 9.13343C6.21902 8.46295 5.67045 7.91438 4.99997 7.91438C4.32949 7.91438 3.78092 8.46295 3.78092 9.13343C3.78092 9.80391 4.32949 10.3525 4.99997 10.3525Z" fill="#737780"/>
</svg>
