<svg width="64" height="64" viewBox="0 0 64 64" fill="none" xmlns="http://www.w3.org/2000/svg">
<circle cx="32" cy="32" r="32" fill="white"/>
<circle cx="32" cy="32" r="26.5" stroke="#EFF1F4"/>
<path fill-rule="evenodd" clip-rule="evenodd" d="M45.9999 7.75129C41.7434 5.29378 36.915 4 31.9999 4V6C46.3593 6 57.9999 17.6406 57.9999 32C57.9999 46.3594 46.3593 58 31.9999 58C22.3772 58 13.9754 52.7724 9.47952 45.0022L7.75122 46C10.2087 50.2565 13.7434 53.7912 17.9999 56.2487C22.2565 58.7062 27.0849 60 31.9999 60C36.915 60 41.7434 58.7062 45.9999 56.2487C50.2565 53.7912 53.7911 50.2565 56.2486 46C58.7062 41.7435 59.9999 36.915 59.9999 32C59.9999 27.085 58.7062 22.2565 56.2486 18C53.7911 13.7435 50.2565 10.2088 45.9999 7.75129Z" fill="#EE892F"/>
<path d="M40 32L28 38.9282L28 25.0718L40 32Z" fill="#737780"/>
</svg>
