<svg width="8" height="6" viewBox="0 0 8 6" fill="none" xmlns="http://www.w3.org/2000/svg">
<path d="M2.87365 2.48529C3.17208 2.63235 3.40313 2.84804 3.56679 3.13235C3.73045 3.40686 3.81227 3.73529 3.81227 4.11765C3.81227 4.68627 3.63418 5.14216 3.27798 5.48529C2.92178 5.82843 2.4645 6 1.90614 6C1.34777 6 0.890493 5.82843 0.534296 5.48529C0.178099 5.14216 0 4.68627 0 4.11765C0 3.86275 0.0336943 3.60784 0.101083 3.35294C0.168472 3.09804 0.322503 2.71078 0.563177 2.19118L1.57401 0H3.59567L2.87365 2.48529ZM7.06137 2.48529C7.35981 2.63235 7.59085 2.84804 7.75451 3.13235C7.91817 3.40686 8 3.73529 8 4.11765C8 4.68627 7.8219 5.14216 7.4657 5.48529C7.10951 5.82843 6.65223 6 6.09386 6C5.5355 6 5.07822 5.82843 4.72202 5.48529C4.36582 5.14216 4.18773 4.68627 4.18773 4.11765C4.18773 3.86275 4.22142 3.60784 4.28881 3.35294C4.3562 3.09804 4.51023 2.71078 4.7509 2.19118L5.76173 0H7.78339L7.06137 2.48529Z" fill="white"/>
</svg>
