<svg width="15" height="14" viewBox="0 0 15 14" fill="none" xmlns="http://www.w3.org/2000/svg">
<path d="M7.29178 7.90538C9.31 7.90538 10.9503 6.26513 10.9503 4.24691C10.9503 3.27162 10.5699 2.35467 9.87931 1.66638C9.18868 0.978078 8.26939 0.600098 7.29178 0.600098C5.27355 0.600098 3.6333 2.23568 3.6333 4.24691C3.6333 6.26513 5.27355 7.90538 7.29178 7.90538ZM7.29178 1.79703C8.64271 1.79703 9.74165 2.89598 9.74165 4.24691C9.74165 5.59784 8.64271 6.69678 7.29178 6.69678C5.94085 6.69678 4.8419 5.59784 4.8419 4.24691C4.8419 2.89598 5.94085 1.79703 7.29178 1.79703Z" fill="#737780"/>
<path d="M9.47097 8.24146H5.15453C2.64399 8.24146 0.600098 10.2853 0.600098 12.7959C0.600098 13.1342 0.866084 13.4002 1.2044 13.4002H13.4211C13.7594 13.4002 14.0254 13.1342 14.0254 12.7959C14.0254 10.2853 11.9838 8.24146 9.47097 8.24146ZM1.8647 12.1916C2.15402 10.6167 3.53994 9.45006 5.15453 9.45006H9.47097C11.0879 9.45006 12.4738 10.619 12.7608 12.1916H1.8647Z" fill="#737780"/>
</svg>
